<?xml version="1.0" encoding="UTF-8" standalone="no"?>
<svg
   width="200mm"
   height="125mm"
   viewBox="0 0 200 125"
   version="1.1"
   id="svg251"
   inkscape:version="1.1.1 (3bf5ae0d25, 2021-09-20, custom)"
   sodipodi:docname="equivalent-sources.svg"
   xmlns:inkscape="http://www.inkscape.org/namespaces/inkscape"
   xmlns:sodipodi="http://sodipodi.sourceforge.net/DTD/sodipodi-0.dtd"
   xmlns="http://www.w3.org/2000/svg"
   xmlns:svg="http://www.w3.org/2000/svg"
   xmlns:rdf="http://www.w3.org/1999/02/22-rdf-syntax-ns#"
   xmlns:cc="http://creativecommons.org/ns#"
   xmlns:dc="http://purl.org/dc/elements/1.1/">
  <defs
     id="defs245">
    <marker
       style="overflow:visible"
       id="Arrow1Lstart"
       refX="0"
       refY="0"
       orient="auto"
       inkscape:stockid="Arrow1Lstart"
       inkscape:isstock="true">
      <path
         transform="matrix(0.8,0,0,0.8,10,0)"
         style="fill:#000000;fill-opacity:1;fill-rule:evenodd;stroke:#000000;stroke-width:1pt;stroke-opacity:1"
         d="M 0,0 5,-5 -12.5,0 5,5 Z"
         id="path1502" />
    </marker>
    <marker
       style="overflow:visible"
       id="Arrow1Mstart"
       refX="0"
       refY="0"
       orient="auto"
       inkscape:stockid="Arrow1Mstart"
       inkscape:isstock="true">
      <path
         transform="matrix(0.4,0,0,0.4,4,0)"
         style="fill:#000000;fill-opacity:1;fill-rule:evenodd;stroke:#000000;stroke-width:1pt;stroke-opacity:1"
         d="M 0,0 5,-5 -12.5,0 5,5 Z"
         id="path3750" />
    </marker>
  </defs>
  <sodipodi:namedview
     id="base"
     pagecolor="#ffffff"
     bordercolor="#666666"
     borderopacity="1.0"
     inkscape:pageopacity="0.0"
     inkscape:pageshadow="2"
     inkscape:zoom="0.64"
     inkscape:cx="570.3125"
     inkscape:cy="-52.34375"
     inkscape:document-units="mm"
     inkscape:current-layer="layer1"
     inkscape:document-rotation="0"
     showgrid="false"
     showguides="true"
     inkscape:guide-bbox="true"
     fit-margin-top="0"
     fit-margin-left="0"
     fit-margin-right="0"
     fit-margin-bottom="0"
     inkscape:window-width="1920"
     inkscape:window-height="1066"
     inkscape:window-x="1600"
     inkscape:window-y="0"
     inkscape:window-maximized="1"
     inkscape:pagecheckerboard="0">
    <sodipodi:guide
       position="-563.40467,-427.44068"
       orientation="1,0"
       id="guide1312" />
  </sodipodi:namedview>
  <metadata
     id="metadata248">
    <rdf:RDF>
      <cc:Work
         rdf:about="">
        <dc:format>image/svg+xml</dc:format>
        <dc:type
           rdf:resource="http://purl.org/dc/dcmitype/StillImage" />
      </cc:Work>
    </rdf:RDF>
  </metadata>
  <g
     inkscape:label="Capa 1"
     inkscape:groupmode="layer"
     id="layer1"
     transform="translate(-236.83328,361.18473)">
    <g
       id="g458"
       transform="matrix(1.3327193,0,0,1.3195147,-78.799011,115.40386)">
      <rect
         style="fill:#ececec;stroke:none;stroke-width:0.246347;stop-color:#000000"
         id="rect982"
         width="150.06911"
         height="94.731796"
         x="236.83328"
         y="-361.18475" />
      <path
         style="fill:#ff6600;fill-opacity:0.982421;stroke:none;stroke-width:0.0649999;stroke-miterlimit:4;stroke-dasharray:none;stop-color:#000000"
         id="path2771"
         d="m 270.65059,-319.66397 c 0.35858,0.0923 0.71,0.21076 1.04683,0.36447 0.33738,0.15832 0.62533,0.39296 0.90404,0.63608 0.28944,0.26116 0.56388,0.5391 0.82724,0.82644 0.29082,0.32936 0.56463,0.67297 0.82119,1.02955 0.25914,0.34814 0.45788,0.73264 0.6489,1.12058 0.17486,0.34417 0.31481,0.70267 0.4234,1.07273 0.12425,0.48688 0.21191,0.98249 0.29251,1.47821 0.0522,0.33943 0.0827,0.68163 0.11015,1.02379 0.005,0.10777 0.0209,0.2145 0.0373,0.32099 0.003,0.017 0.005,0.034 0.009,0.051 0.0584,-0.0604 0.14119,-0.10437 0.17531,-0.18111 0.0113,-0.0266 -0.0495,-0.0307 -0.0745,-0.0456 -0.1764,-0.10487 -0.35328,-0.2074 -0.52684,-0.31715 -0.24545,-0.14824 -0.46554,-0.33049 -0.67957,-0.51986 -0.0203,-0.0182 -0.0407,-0.0364 -0.0609,-0.0545 -0.0152,-0.0136 -0.0302,-0.0273 -0.0453,-0.041 -0.0101,-0.0101 -0.0235,-0.0428 -0.0302,-0.0302 -0.13827,0.26251 -0.2049,0.1921 -0.0621,0.27913 0.29146,0.18767 0.5641,0.40315 0.8312,0.62362 0.21598,0.18341 0.42768,0.37191 0.62865,0.57173 0.17581,0.19865 0.28925,0.14548 0.41453,-0.0787 0.20767,-0.38136 0.47884,-0.72376 0.7528,-1.05902 0.11104,-0.12974 0.21956,-0.26225 0.33955,-0.38394 0.0254,-0.0243 0.0195,-0.0137 -0.0584,0.0286 0.2038,0.004 0.20897,-0.28455 0.005,-0.28822 v 0 c -0.10097,0.0276 -0.10575,0.0101 -0.15229,0.0574 -0.12598,0.12826 -0.24096,0.2669 -0.35732,0.40376 -0.28502,0.34907 -0.56652,0.70586 -0.78242,1.10295 -0.0128,0.0242 -0.0436,0.0456 -0.0385,0.0725 0.004,0.017 0.0315,-0.0184 0.0488,-0.0178 0.0875,0.003 0.13098,0.0603 0.0734,7.1e-4 -0.014,-0.0143 -0.0281,-0.0287 -0.0422,-0.0429 -0.20734,-0.20601 -0.42551,-0.40061 -0.6484,-0.58964 -0.27893,-0.23001 -0.56357,-0.45498 -0.86858,-0.64977 -0.16561,-0.095 -0.11784,-0.10953 -0.31158,0.14634 -0.005,0.006 0.15593,0.15026 0.17309,0.16478 0.22559,0.19958 0.45813,0.39104 0.71653,0.54761 0.17483,0.11053 0.35288,0.21391 0.5306,0.3195 0.0238,0.0141 0.0441,0.0501 0.0708,0.0432 0.0934,-0.0239 0.17303,-0.0852 0.25954,-0.12783 -10e-4,-0.0101 -0.003,-0.0195 -0.005,-0.0292 -0.0152,-0.0997 -0.0301,-0.19957 -0.0349,-0.30041 -0.0281,-0.34994 -0.0594,-0.6999 -0.11292,-1.04703 -0.0826,-0.50754 -0.17235,-1.01502 -0.30051,-1.51329 -0.1138,-0.38569 -0.25888,-0.75987 -0.44133,-1.11872 -0.19811,-0.40225 -0.40507,-0.80051 -0.67355,-1.16164 -0.26336,-0.36567 -0.54404,-0.71833 -0.84267,-1.05595 -0.27077,-0.29513 -0.5526,-0.58084 -0.85029,-0.84893 -0.29992,-0.26127 -0.61095,-0.51178 -0.97413,-0.68118 -0.35427,-0.1606 -0.72285,-0.2866 -1.09993,-0.38261 -0.19838,-0.0468 -0.26461,0.23371 -0.0662,0.28055 z" />
      <g
         id="g480"
         transform="matrix(0.35951369,0,0,0.35951369,260.12981,-343.97805)"
         style="stroke-width:2.78154">
        <path
           style="fill:#ac9393;stroke:#000000;stroke-width:0.735947px;stroke-linecap:butt;stroke-linejoin:miter;stroke-opacity:1"
           d="m 32.199816,111.74838 c 5.369676,0.37884 7.467327,-4.35242 11.648858,-7.0893 3.347183,-2.19078 6.182272,-1.56463 8.545668,-5.499563 1.979989,-3.296584 2.437744,-9.433703 4.774118,-11.68659 1.416529,-1.365914 3.358499,-2.171076 4.869603,-3.437234 2.421332,-2.028835 4.269632,-4.394097 6.301849,-6.745562 0.915932,-1.059821 2.160182,-1.815198 3.198656,-2.749786 1.777699,-1.599864 3.195714,-3.461504 4.726387,-5.284745 1.027634,-1.224055 3.951968,-4.454763 4.248978,-6.058122 0.223811,-1.208199 2.332945,-2.172483 3.246387,-2.706823 1.445924,-0.84583 3.53613,-2.541804 5.299282,-2.663851 1.017635,-0.07044 2.55533,1.281234 3.485113,1.63268 3.543109,1.339252 6.78176,3.246967 10.073405,5.06992 1.18496,0.656246 2.19256,1.737172 3.5806,2.320133 2.87176,1.206106 2.42721,3.401762 5.20379,4.683229 4.14665,1.913792 7.93213,1.458923 11.83983,2.706819 2.6762,0.854626 5.20173,1.986407 7.92504,2.749786 2.85593,0.80055 5.82861,1.188154 8.64114,2.148274 2.79864,0.955383 5.00128,2.705309 8.02054,3.093503 0.27238,0.03502 3.02357,-1.196957 3.67605,-1.374892 0.84915,-0.231574 1.95969,-0.19186 2.76902,-0.515588 2.28252,-0.912995 4.57511,-1.948521 6.77926,-3.050537 0.63182,-0.315894 1.09392,-1.072275 1.6709,-1.331923 0.55925,-0.25167 1.3168,0.04774 1.81416,0.300749 3.49514,1.777931 7.39991,1.337513 11.21923,2.23421 1.37317,0.322387 2.84453,1.477502 4.15345,2.019372 2.49034,1.030951 5.22302,1.665086 7.63861,2.835708 0.95238,0.461532 1.70495,1.293816 2.5303,1.933448 1.27685,0.989547 2.68891,1.789798 3.96252,2.792754 1.28939,1.015381 2.4103,2.280534 3.8193,3.136472 2.89076,1.756063 6.3035,2.734698 9.50049,3.780948 1.94089,0.63518 3.96889,1.103046 5.68122,2.277166 1.46995,1.007925 2.55474,2.670879 4.15349,3.480195 2.71237,1.37306 6.70138,2.492 9.02308,4.29654 1.65257,1.28446 3.03307,2.88711 4.91733,3.86689 1.78789,0.92966 3.81813,1.30018 5.68123,2.06233 1.36234,0.55731 2.47805,1.55279 3.77154,2.23422 4.15126,2.1869 11.55329,5.22555 14.56108,8.72197 2.0687,2.40477 4.97172,3.17776 7.63857,4.72619 0.44,0.25548 2.83334,1.16834 1.76646,1.03117 H 32.09644 Z"
           id="path308" />
        <path
           sodipodi:type="star"
           style="fill:#ff7f2a;stroke:none;stroke-width:7.34932;stop-color:#000000"
           id="path306-4"
           sodipodi:sides="5"
           sodipodi:cx="33.259544"
           sodipodi:cy="107.32788"
           sodipodi:r1="7.6848803"
           sodipodi:r2="3.8424401"
           sodipodi:arg1="0.82452454"
           sodipodi:arg2="1.4528431"
           inkscape:flatsided="false"
           inkscape:rounded="0"
           inkscape:randomized="0"
           inkscape:transform-center-x="0.25472759"
           inkscape:transform-center-y="-0.38486723"
           transform="matrix(0.91150821,0,0,0.83132114,37.736582,-8.9156771)"
           d="m 38.476857,112.97031 -4.765135,-1.82669 -4.206211,2.88983 0.264778,-5.09639 -4.048177,-3.10734 4.928776,-1.32306 1.7043,-4.810262 2.781373,4.278702 5.101493,0.13443 -3.209793,3.96743 z" />
        <path
           sodipodi:type="star"
           style="fill:#ff7f2a;stroke:none;stroke-width:7.34932;stop-color:#000000"
           id="path306-47"
           sodipodi:sides="5"
           sodipodi:cx="33.259544"
           sodipodi:cy="107.32788"
           sodipodi:r1="7.6848803"
           sodipodi:r2="3.8424401"
           sodipodi:arg1="0.82452454"
           sodipodi:arg2="1.4528431"
           inkscape:flatsided="false"
           inkscape:rounded="0"
           inkscape:randomized="0"
           inkscape:transform-center-x="0.25473661"
           inkscape:transform-center-y="-0.38486955"
           transform="matrix(0.91150821,0,0,0.83132114,49.899829,-22.121501)"
           d="m 38.476857,112.97031 -4.765135,-1.82669 -4.206211,2.88983 0.264778,-5.09639 -4.048177,-3.10734 4.928776,-1.32306 1.7043,-4.810262 2.781373,4.278702 5.101493,0.13443 -3.209793,3.96743 z" />
        <path
           sodipodi:type="star"
           style="fill:#ff7f2a;stroke:none;stroke-width:7.34932;stop-color:#000000"
           id="path306-6"
           sodipodi:sides="5"
           sodipodi:cx="33.259544"
           sodipodi:cy="107.32788"
           sodipodi:r1="7.6848803"
           sodipodi:r2="3.8424401"
           sodipodi:arg1="0.82452454"
           sodipodi:arg2="1.4528431"
           inkscape:flatsided="false"
           inkscape:rounded="0"
           inkscape:randomized="0"
           inkscape:transform-center-x="0.25473173"
           inkscape:transform-center-y="-0.38486616"
           transform="matrix(0.91150821,0,0,0.83132114,61.368048,-32.199625)"
           d="m 38.476857,112.97031 -4.765135,-1.82669 -4.206211,2.88983 0.264778,-5.09639 -4.048177,-3.10734 4.928776,-1.32306 1.7043,-4.810262 2.781373,4.278702 5.101493,0.13443 -3.209793,3.96743 z" />
        <path
           sodipodi:type="star"
           style="fill:#ff7f2a;stroke:none;stroke-width:7.34932;stop-color:#000000"
           id="path306-3"
           sodipodi:sides="5"
           sodipodi:cx="33.259544"
           sodipodi:cy="107.32788"
           sodipodi:r1="7.6848803"
           sodipodi:r2="3.8424401"
           sodipodi:arg1="0.82452454"
           sodipodi:arg2="1.4528431"
           inkscape:flatsided="false"
           inkscape:rounded="0"
           inkscape:randomized="0"
           inkscape:transform-center-x="0.25473132"
           inkscape:transform-center-y="-0.38486402"
           transform="matrix(0.91150821,0,0,0.83132114,88.474734,-16.908671)"
           d="m 38.476857,112.97031 -4.765135,-1.82669 -4.206211,2.88983 0.264778,-5.09639 -4.048177,-3.10734 4.928776,-1.32306 1.7043,-4.810262 2.781373,4.278702 5.101493,0.13443 -3.209793,3.96743 z" />
        <path
           sodipodi:type="star"
           style="fill:#ff7f2a;stroke:none;stroke-width:7.34932;stop-color:#000000"
           id="path306-1"
           sodipodi:sides="5"
           sodipodi:cx="33.259544"
           sodipodi:cy="107.32788"
           sodipodi:r1="7.6848803"
           sodipodi:r2="3.8424401"
           sodipodi:arg1="0.82452454"
           sodipodi:arg2="1.4528431"
           inkscape:flatsided="false"
           inkscape:rounded="0"
           inkscape:randomized="0"
           inkscape:transform-center-x="0.25462622"
           inkscape:transform-center-y="-0.38486624"
           transform="matrix(0.91150821,0,0,0.83132114,116.62409,-10.305763)"
           d="m 38.476857,112.97031 -4.765135,-1.82669 -4.206211,2.88983 0.264778,-5.09639 -4.048177,-3.10734 4.928776,-1.32306 1.7043,-4.810262 2.781373,4.278702 5.101493,0.13443 -3.209793,3.96743 z" />
        <path
           sodipodi:type="star"
           style="fill:#ff7f2a;stroke:none;stroke-width:7.34932;stop-color:#000000"
           id="path306-7"
           sodipodi:sides="5"
           sodipodi:cx="33.259544"
           sodipodi:cy="107.32788"
           sodipodi:r1="7.6848803"
           sodipodi:r2="3.8424401"
           sodipodi:arg1="0.82452454"
           sodipodi:arg2="1.4528431"
           inkscape:flatsided="false"
           inkscape:rounded="0"
           inkscape:randomized="0"
           inkscape:transform-center-x="0.25480321"
           inkscape:transform-center-y="-0.38486804"
           transform="matrix(0.91150821,0,0,0.83132114,134.75814,-12.888523)"
           d="m 38.476857,112.97031 -4.765135,-1.82669 -4.206211,2.88983 0.264778,-5.09639 -4.048177,-3.10734 4.928776,-1.32306 1.7043,-4.810262 2.781373,4.278702 5.101493,0.13443 -3.209793,3.96743 z" />
        <path
           sodipodi:type="star"
           style="fill:#ff7f2a;stroke:none;stroke-width:7.34932;stop-color:#000000"
           id="path306-5"
           sodipodi:sides="5"
           sodipodi:cx="33.259544"
           sodipodi:cy="107.32788"
           sodipodi:r1="7.6848803"
           sodipodi:r2="3.8424401"
           sodipodi:arg1="0.82452454"
           sodipodi:arg2="1.4528431"
           inkscape:flatsided="false"
           inkscape:rounded="0"
           inkscape:randomized="0"
           inkscape:transform-center-x="0.25484416"
           inkscape:transform-center-y="-0.38486559"
           transform="matrix(0.91150821,0,0,0.83132114,159.36903,-5.4877649)"
           d="m 38.476857,112.97031 -4.765135,-1.82669 -4.206211,2.88983 0.264778,-5.09639 -4.048177,-3.10734 4.928776,-1.32306 1.7043,-4.810262 2.781373,4.278702 5.101493,0.13443 -3.209793,3.96743 z" />
        <path
           sodipodi:type="star"
           style="fill:#ff7f2a;stroke:none;stroke-width:7.34932;stop-color:#000000"
           id="path306-9"
           sodipodi:sides="5"
           sodipodi:cx="33.259544"
           sodipodi:cy="107.32788"
           sodipodi:r1="7.6848803"
           sodipodi:r2="3.8424401"
           sodipodi:arg1="0.82452454"
           sodipodi:arg2="1.4528431"
           inkscape:flatsided="false"
           inkscape:rounded="0"
           inkscape:randomized="0"
           inkscape:transform-center-x="0.25473087"
           inkscape:transform-center-y="-0.3848683"
           transform="matrix(0.91150821,0,0,0.83132114,193.07874,13.807565)"
           d="m 38.476857,112.97031 -4.765135,-1.82669 -4.206211,2.88983 0.264778,-5.09639 -4.048177,-3.10734 4.928776,-1.32306 1.7043,-4.810262 2.781373,4.278702 5.101493,0.13443 -3.209793,3.96743 z" />
        <path
           sodipodi:type="star"
           style="fill:#ff7f2a;stroke:none;stroke-width:7.34932;stop-color:#000000"
           id="path306"
           sodipodi:sides="5"
           sodipodi:cx="33.259544"
           sodipodi:cy="107.32788"
           sodipodi:r1="7.6848803"
           sodipodi:r2="3.8424401"
           sodipodi:arg1="0.82452454"
           sodipodi:arg2="1.4528431"
           inkscape:flatsided="false"
           inkscape:rounded="0"
           inkscape:randomized="0"
           inkscape:transform-center-x="0.25473775"
           inkscape:transform-center-y="-0.38486674"
           transform="matrix(0.91150821,0,0,0.83132114,15.740132,12.825993)"
           d="m 38.476857,112.97031 -4.765135,-1.82669 -4.206211,2.88983 0.264778,-5.09639 -4.048177,-3.10734 4.928776,-1.32306 1.7043,-4.810262 2.781373,4.278702 5.101493,0.13443 -3.209793,3.96743 z" />
      </g>
      <g
         id="g491"
         transform="matrix(0.35951369,0,0,0.35951369,260.12981,-322.29037)"
         style="fill:#2b0000;stroke-width:2.78154">
        <ellipse
           style="fill:#2b0000;stroke:none;stroke-width:6.39754;stop-color:#000000"
           id="path257"
           cx="46.228603"
           cy="102.00987"
           rx="3.7313035"
           ry="3.8827109" />
        <ellipse
           style="fill:#2b0000;stroke:none;stroke-width:6.39754;stop-color:#000000"
           id="path257-1"
           cx="67.837967"
           cy="79.627167"
           rx="3.7313035"
           ry="3.8827109" />
        <ellipse
           style="fill:#2b0000;stroke:none;stroke-width:6.39754;stop-color:#000000"
           id="path257-1-6"
           cx="79.895493"
           cy="65.994637"
           rx="3.7313035"
           ry="3.8827109" />
        <ellipse
           style="fill:#2b0000;stroke:none;stroke-width:6.39754;stop-color:#000000"
           id="path257-1-2"
           cx="91.345467"
           cy="57.405571"
           rx="3.7313035"
           ry="3.8827109" />
        <ellipse
           style="fill:#2b0000;stroke:none;stroke-width:6.39754;stop-color:#000000"
           id="path257-1-1"
           cx="117.22417"
           cy="71.822639"
           rx="3.7313035"
           ry="3.8827109" />
        <ellipse
           style="fill:#2b0000;stroke:none;stroke-width:6.39754;stop-color:#000000"
           id="path257-1-7"
           cx="147.65895"
           cy="78.000427"
           rx="3.7313035"
           ry="3.8827109" />
        <ellipse
           style="fill:#2b0000;stroke:none;stroke-width:6.39754;stop-color:#000000"
           id="path257-1-8"
           cx="165.08223"
           cy="75.726692"
           rx="3.7313035"
           ry="3.8827109" />
        <ellipse
           style="fill:#2b0000;stroke:none;stroke-width:6.39754;stop-color:#000000"
           id="path257-1-5"
           cx="189.7813"
           cy="83.684113"
           rx="3.7313035"
           ry="3.8827109" />
        <ellipse
           style="fill:#2b0000;stroke:none;stroke-width:6.39754;stop-color:#000000"
           id="path257-1-74"
           cx="223.33183"
           cy="104.0414"
           rx="3.7313035"
           ry="3.8827109" />
      </g>
      <path
         style="fill:#ff00ff;stroke:#000000;stroke-width:0.264583px;stroke-linecap:butt;stroke-linejoin:miter;stroke-opacity:1"
         d="m 271.09466,-343.46655 1.27357,4.68036 1.23826,-4.55059 z"
         id="path801" />
      <path
         style="fill:#ff00ff;stroke:#000000;stroke-width:0.264583px;stroke-linecap:butt;stroke-linejoin:miter;stroke-opacity:1"
         d="m 278.28493,-343.46655 1.27357,4.68036 1.23826,-4.55059 z"
         id="path801-9-2"
         inkscape:transform-center-x="6.508027"
         inkscape:transform-center-y="-1.8628619" />
      <path
         style="fill:#ff00ff;stroke:#000000;stroke-width:0.264583px;stroke-linecap:butt;stroke-linejoin:miter;stroke-opacity:1"
         d="m 285.09497,-343.33259 1.27357,4.68036 1.23826,-4.55059 z"
         id="path801-9-2-2-4"
         inkscape:transform-center-x="6.508027"
         inkscape:transform-center-y="-1.8628619" />
      <path
         style="fill:#ff00ff;stroke:#000000;stroke-width:0.264583px;stroke-linecap:butt;stroke-linejoin:miter;stroke-opacity:1"
         d="m 292.66548,-343.46655 1.27357,4.68036 1.23826,-4.55059 z"
         id="path801-5" />
      <path
         style="fill:#ff00ff;stroke:#000000;stroke-width:0.264583px;stroke-linecap:butt;stroke-linejoin:miter;stroke-opacity:1"
         d="m 299.85575,-343.46655 1.27357,4.68036 1.23826,-4.55059 z"
         id="path801-9-2-8"
         inkscape:transform-center-x="6.508027"
         inkscape:transform-center-y="-1.8628619" />
      <path
         style="fill:#ff00ff;stroke:#000000;stroke-width:0.264583px;stroke-linecap:butt;stroke-linejoin:miter;stroke-opacity:1"
         d="m 306.66579,-343.33259 1.27357,4.68036 1.23826,-4.55059 z"
         id="path801-9-2-2-4-2"
         inkscape:transform-center-x="6.508027"
         inkscape:transform-center-y="-1.8628619" />
      <path
         style="fill:#ff00ff;stroke:#000000;stroke-width:0.264583px;stroke-linecap:butt;stroke-linejoin:miter;stroke-opacity:1"
         d="m 314.2363,-343.46655 1.27357,4.68036 1.23826,-4.55059 z"
         id="path801-5-3" />
      <path
         style="fill:#ff00ff;stroke:#000000;stroke-width:0.264583px;stroke-linecap:butt;stroke-linejoin:miter;stroke-opacity:1"
         d="m 321.42657,-343.46655 1.27357,4.68036 1.23826,-4.55059 z"
         id="path801-9-2-8-8"
         inkscape:transform-center-x="6.508027"
         inkscape:transform-center-y="-1.8628619" />
      <path
         style="fill:#ff00ff;stroke:#000000;stroke-width:0.264583px;stroke-linecap:butt;stroke-linejoin:miter;stroke-opacity:1"
         d="m 328.23661,-343.33259 1.27357,4.68036 1.23826,-4.55059 z"
         id="path801-9-2-2-4-2-2"
         inkscape:transform-center-x="6.508027"
         inkscape:transform-center-y="-1.8628619" />
      <path
         style="fill:#ff00ff;stroke:#000000;stroke-width:0.264583px;stroke-linecap:butt;stroke-linejoin:miter;stroke-opacity:1"
         d="m 335.80712,-343.46655 1.27357,4.68036 1.23826,-4.55059 z"
         id="path801-5-3-5" />
      <path
         style="fill:#ff00ff;stroke:#000000;stroke-width:0.264583px;stroke-linecap:butt;stroke-linejoin:miter;stroke-opacity:1"
         d="m 342.99739,-343.46655 1.27357,4.68036 1.23826,-4.55059 z"
         id="path801-9-2-8-8-1"
         inkscape:transform-center-x="6.508027"
         inkscape:transform-center-y="-1.8628619" />
      <path
         style="fill:#ff00ff;stroke:#000000;stroke-width:0.264583px;stroke-linecap:butt;stroke-linejoin:miter;stroke-opacity:1"
         d="m 349.80743,-343.33259 1.27357,4.68036 1.23826,-4.55059 z"
         id="path801-9-2-2-4-2-2-8"
         inkscape:transform-center-x="6.508027"
         inkscape:transform-center-y="-1.8628619" />
      <path
         style="fill:#000000;fill-opacity:0.982421;stroke:none;stroke-width:11.7;stroke-miterlimit:4;stroke-dasharray:none;stroke-opacity:0.957373;stop-color:#000000"
         id="path2972"
         d="m 319.40816,-289.63437 c 0.0229,0.52007 0.0633,1.03898 0.0832,1.55926 0.0171,0.57254 0.0101,1.14565 -0.0101,1.71802 -0.0356,0.67353 -0.1177,1.34258 -0.27554,1.99834 -0.15191,0.61089 -0.43462,1.16921 -0.76203,1.70219 -0.29122,0.46066 -0.65288,0.86824 -1.06463,1.2233 -0.28969,0.23617 -0.60683,0.43777 -0.94436,0.59794 -0.21412,0.09 -0.43932,0.14942 -0.66613,0.1973 -0.0709,0.0133 -0.14053,0.0325 -0.21054,0.0498 -0.0376,0.0101 -0.0753,0.0191 -0.11292,0.029 -10e-4,3.7e-4 -0.004,7.2e-4 -0.005,10e-4 0.073,0.0243 0.14207,0.0713 0.21898,0.0729 0.001,4e-5 -0.023,-0.0451 -0.068,-0.18046 -0.0472,-0.14234 -0.0618,-0.2007 -0.10424,-0.35074 -0.11519,-0.4034 -0.19161,-0.81591 -0.2465,-1.2314 -0.005,-0.0386 -0.009,-0.0773 -0.0136,-0.11594 -0.004,-0.0281 -0.006,-0.056 -0.009,-0.0841 -0.001,-0.0194 0.0156,-0.0623 -0.004,-0.0582 -0.435,0.0961 -0.40285,-0.0482 -0.39979,0.19274 -0.016,0.40922 -0.0691,0.81588 -0.10802,1.22334 -0.0272,0.31009 -0.0486,0.62064 -0.0777,0.93056 -0.0128,0.0911 -0.0185,0.18428 -0.0424,0.2735 -0.003,0.046 -0.10449,-0.004 -0.006,0.1167 0.19326,0.23602 0.42471,0.17921 0.69025,0.18672 0.32187,0.009 0.63922,0.0578 0.95339,0.12464 0.19709,0.0433 0.39315,0.0913 0.58827,0.14263 0.037,0.0101 0.0739,0.0198 0.11053,0.0306 -10e-4,-3.6e-4 -0.003,-7.1e-4 -0.004,-10e-4 0.041,10e-4 0.0821,0.004 0.12299,0.005 0.28608,-0.0354 0.23606,-0.43996 -0.05,-0.40458 v 0 c 0.0193,0.005 0.0385,0.009 0.0578,0.0132 -0.003,-7.2e-4 -0.005,-0.001 -0.008,-0.003 -0.0422,-0.0126 -0.0846,-0.0239 -0.12707,-0.0352 -0.2014,-0.053 -0.40376,-0.10248 -0.6072,-0.14714 -0.33835,-0.072 -0.68026,-0.12401 -1.02679,-0.13346 -0.25734,-0.008 -0.1065,-0.004 -0.33231,-0.008 -0.0272,-3.6e-4 -0.0869,-0.0281 -0.0815,-10e-4 0.0128,0.0634 0.0755,0.10511 0.1133,0.15769 -0.003,0.0271 -0.008,0.0541 -0.008,0.0813 -6e-5,0.009 0.005,-0.0157 0.006,-0.0237 0.0282,-0.11079 0.0403,-0.22471 0.0538,-0.33795 0.0288,-0.30969 0.0506,-0.61999 0.0775,-0.92984 0.0402,-0.42239 0.0961,-0.84398 0.10978,-1.26836 -0.005,-0.24876 0.0382,-0.17801 -0.41514,-0.20295 -0.0389,-0.003 10e-4,0.0779 0.005,0.1167 0.009,0.0928 0.0113,0.11104 0.0235,0.21162 0.0577,0.43494 0.13784,0.8668 0.25844,1.28913 0.024,0.0846 0.12666,0.53712 0.19508,0.59242 0.0764,0.0617 0.16959,0.0992 0.25437,0.14878 0.001,-3.5e-4 0.003,-7.2e-4 0.004,-10e-4 0.0359,-0.009 0.0719,-0.0186 0.10789,-0.0277 0.0655,-0.0162 0.13042,-0.0344 0.19671,-0.0467 0.25823,-0.0548 0.51445,-0.12338 0.75739,-0.22824 0.36965,-0.17749 0.71865,-0.39645 1.03542,-0.65754 0.4422,-0.3838 0.8329,-0.82138 1.1454,-1.31846 0.349,-0.56998 0.64952,-1.16741 0.81096,-1.82027 0.163,-0.68258 0.25076,-1.37833 0.28653,-2.07932 0.02,-0.58225 0.0272,-1.16526 0.0101,-1.74769 -0.0199,-0.5195 -0.0599,-1.03767 -0.0831,-1.55696 -0.009,-0.28812 -0.41687,-0.2748 -0.40745,0.0133 z" />
      <path
         style="fill:#ff00ff;fill-opacity:0.982421;stroke:none;stroke-width:0;stroke-miterlimit:4;stroke-dasharray:none;stroke-opacity:0.957373;stop-color:#000000"
         id="path2974"
         d="m 320.76117,-350.66984 c -0.45361,-0.10165 -0.91313,-0.11792 -1.37535,-0.0971 -0.44689,0.0212 -0.88455,0.1107 -1.31037,0.24416 -0.34696,0.11689 -0.66465,0.29885 -0.96429,0.50641 -0.27065,0.19977 -0.4984,0.44901 -0.73389,0.68738 -0.20303,0.19549 -0.38042,0.41343 -0.53744,0.64689 -0.17261,0.28243 -0.29634,0.59085 -0.40932,0.90089 -0.0775,0.24461 -0.1509,0.49207 -0.20149,0.74389 -0.0119,0.0702 -0.0226,0.1414 -0.0194,0.21284 0.006,0.18446 0.0391,-0.16173 -0.0188,0.0562 -0.025,0.0857 -0.0485,0.17163 -0.0708,0.25796 -0.004,0.0178 -0.008,0.0351 -0.014,0.0521 0.13139,0.0462 0.25694,0.11298 0.39348,0.14025 0.0256,0.005 0.0397,-0.0336 0.0602,-0.0495 0.18155,-0.14145 0.3683,-0.27598 0.54943,-0.41806 0.23689,-0.19007 0.46347,-0.39266 0.68375,-0.60164 0.0663,-0.0569 0.22499,-0.0943 -0.26999,-0.23972 -0.0457,-0.0136 -0.0572,0.0762 -0.0867,0.11363 -0.0352,0.0447 -0.0713,0.0889 -0.10696,0.13322 -0.23234,0.28224 -0.46208,0.56678 -0.68427,0.85714 -0.0684,0.089 -0.13263,0.18111 -0.19973,0.27106 -0.0276,0.036 0.0145,-0.0204 0.0406,-0.0358 0.10078,-0.0597 0.16644,0.002 -0.034,-0.0861 -0.34363,-0.16687 -0.6714,-0.36437 -0.99456,-0.56747 -0.14969,-0.0968 -0.29938,-0.19355 -0.44914,-0.29014 -0.14344,-0.0923 -0.0314,-0.042 -0.10797,0.36735 0.28037,0.0671 0.37523,-0.3294 0.0949,-0.39646 v 0 c -0.25026,0.36061 -0.35921,0.27393 -0.20803,0.37159 0.1512,0.0976 0.30231,0.19535 0.4535,0.29293 0.34029,0.21358 0.68537,0.42153 1.04786,0.59567 0.15315,0.0665 0.3576,0.16816 0.4835,-0.008 0.0662,-0.0887 0.1295,-0.17942 0.19684,-0.26725 0.22022,-0.28794 0.44821,-0.56993 0.67853,-0.84983 0.0341,-0.0426 0.21202,-0.26248 0.21135,-0.27082 -0.0429,-0.5182 -0.12774,-0.46147 -0.34647,-0.28707 -0.21099,0.20026 -0.428,0.39439 -0.6548,0.57665 -0.18416,0.14462 -0.37548,0.28021 -0.55889,0.4257 -0.0281,0.0223 -0.10163,0.0392 -0.082,0.0691 0.0689,0.1047 0.1914,0.16181 0.28713,0.24265 10e-4,-0.004 0.008,-0.0309 0.01,-0.0391 0.0226,-0.0853 0.045,-0.17105 0.0702,-0.25581 0.007,-0.0299 0.0466,-0.32359 0.0318,-0.1879 0.002,-0.0359 0.007,-0.0715 0.0126,-0.10676 0.0448,-0.23161 0.11576,-0.45838 0.1847,-0.68358 0.10107,-0.27942 0.21222,-0.55716 0.36484,-0.81303 0.1423,-0.21258 0.30418,-0.41002 0.48894,-0.58753 0.2179,-0.22062 0.42811,-0.45186 0.67659,-0.63917 0.26512,-0.18515 0.54695,-0.3469 0.85406,-0.45228 0.39178,-0.12413 0.7951,-0.20554 1.20649,-0.22575 0.43024,-0.02 0.8574,-0.005 1.27959,0.0901 0.28304,0.0546 0.36019,-0.34576 0.0772,-0.40029 z" />
      <text
         xml:space="preserve"
         style="font-weight:bold;font-size:3.80484px;line-height:1.25;font-family:Ligconsolata;-inkscape-font-specification:'Ligconsolata, Bold';letter-spacing:0px;word-spacing:0px;fill:#ff7f2a;stroke-width:0.264583"
         x="254.72453"
         y="-321.54916"
         id="text3622"><tspan
           sodipodi:role="line"
           id="tspan3620"
           x="254.72453"
           y="-321.54916"
           style="fill:#ff7f2a;stroke-width:0.264583">Observation </tspan><tspan
           sodipodi:role="line"
           x="254.72453"
           y="-316.79312"
           style="fill:#ff7f2a;stroke-width:0.264583"
           id="tspan9137">points</tspan></text>
      <text
         xml:space="preserve"
         style="font-weight:bold;font-size:3.80484px;line-height:1.25;font-family:Ligconsolata;-inkscape-font-specification:'Ligconsolata, Bold';letter-spacing:0px;word-spacing:0px;fill:#ff00ff;stroke-width:0.264583"
         x="322.4664"
         y="-352.23233"
         id="text3730"><tspan
           sodipodi:role="line"
           x="322.4664"
           y="-352.23233"
           style="fill:#ff00ff;stroke-width:0.264583"
           id="tspan3736">Predict here </tspan><tspan
           sodipodi:role="line"
           x="322.4664"
           y="-347.47629"
           style="fill:#ff00ff;stroke-width:0.264583"
           id="tspan3640">to make a grid</tspan></text>
      <path
         style="fill:#ff7f2a;fill-opacity:1;stroke:none;stroke-width:0;stroke-miterlimit:4;stroke-dasharray:none;stroke-opacity:0.957373;stop-color:#000000"
         id="path2974-3"
         d="m 334.40989,-321.22166 c -0.44956,-0.11829 -0.90817,-0.15148 -1.37084,-0.14767 -0.44736,0.005 -0.88802,0.078 -1.31847,0.19571 -0.35104,0.10401 -0.67521,0.27415 -0.9823,0.47053 -0.27783,0.18966 -0.51461,0.43033 -0.75872,0.65987 -0.2101,0.18787 -0.3954,0.39913 -0.56092,0.62664 -0.1829,0.27588 -0.31791,0.57953 -0.44224,0.88519 -0.0865,0.24159 -0.16893,0.48618 -0.22876,0.73596 -0.0145,0.0697 -0.0278,0.14047 -0.0272,0.21199 -7.7e-4,0.18455 0.045,-0.16018 -0.0209,0.0555 -0.0282,0.0847 -0.0547,0.16973 -0.0803,0.25517 -0.004,0.0176 -0.01,0.0348 -0.0159,0.0515 0.1296,0.051 0.2526,0.12237 0.38804,0.15465 0.0255,0.006 0.0409,-0.0321 0.062,-0.0473 0.18664,-0.13466 0.37821,-0.26222 0.56446,-0.39752 0.24373,-0.18122 0.47762,-0.37532 0.70546,-0.57604 0.0683,-0.0544 0.22831,-0.086 -0.26098,-0.2495 -0.0452,-0.0153 -0.06,0.074 -0.0908,0.11035 -0.0368,0.0434 -0.0745,0.0862 -0.1118,0.12918 -0.24259,0.2735 -0.48266,0.54937 -0.71539,0.83135 -0.0717,0.0865 -0.13922,0.1761 -0.20958,0.26351 -0.029,0.0349 0.0152,-0.0199 0.0419,-0.0343 0.10291,-0.056 0.16624,0.009 -0.0308,-0.0873 -0.33725,-0.17942 -0.65751,-0.38886 -0.97298,-0.60373 -0.14601,-0.10222 -0.29203,-0.20445 -0.43814,-0.30649 -0.13994,-0.0975 -0.0299,-0.0431 -0.12143,0.36312 0.27771,0.0773 0.38711,-0.31535 0.10945,-0.3927 v 0 c -0.26338,0.35115 -0.36906,0.26051 -0.22159,0.36367 0.1475,0.10309 0.29491,0.20636 0.4424,0.30944 0.33219,0.22598 0.66938,0.44651 1.0252,0.63388 0.15059,0.0721 0.35116,0.18123 0.48345,0.0103 0.0694,-0.0862 0.13602,-0.17453 0.20655,-0.25982 0.23068,-0.27963 0.46892,-0.55302 0.70939,-0.82424 0.0357,-0.0413 0.22155,-0.2545 0.22119,-0.26286 -0.0238,-0.51942 -0.11065,-0.46585 -0.33565,-0.29963 -0.21824,0.19234 -0.44225,0.37834 -0.67562,0.55212 -0.18936,0.13774 -0.38554,0.26618 -0.57419,0.40482 -0.0289,0.0212 -0.10301,0.0354 -0.0845,0.066 0.065,0.10716 0.18532,0.16875 0.278,0.25307 10e-4,-0.004 0.009,-0.0306 0.0114,-0.0387 0.0258,-0.0844 0.0513,-0.16927 0.0796,-0.25305 0.009,-0.0296 0.0585,-0.32165 0.0387,-0.1866 0.003,-0.0358 0.009,-0.0712 0.0165,-0.10623 0.0533,-0.2298 0.13257,-0.45379 0.20976,-0.6763 0.1113,-0.27551 0.23261,-0.54897 0.39456,-0.79903 0.15003,-0.20719 0.31908,-0.39854 0.51026,-0.56912 0.22588,-0.21244 0.44447,-0.43577 0.69968,-0.6138 0.27177,-0.17525 0.55937,-0.32651 0.87015,-0.4205 0.39609,-0.10961 0.80213,-0.1761 1.21399,-0.18113 0.43068,-0.004 0.85702,0.0261 1.27539,0.1372 0.28085,0.065 0.37269,-0.33224 0.0919,-0.39717 z" />
      <text
         xml:space="preserve"
         style="font-weight:bold;font-size:3.80484px;line-height:1.25;font-family:Ligconsolata;-inkscape-font-specification:'Ligconsolata, Bold';letter-spacing:0px;word-spacing:0px;fill:#ff7f2a;fill-opacity:1;stroke-width:0.264583"
         x="336.1424"
         y="-322.31027"
         id="text3730-6"><tspan
           sodipodi:role="line"
           x="336.1424"
           y="-322.31027"
           style="fill:#ff7f2a;fill-opacity:1;stroke-width:0.264583"
           id="tspan3640-5">Predict here to </tspan><tspan
           sodipodi:role="line"
           x="336.1424"
           y="-317.55423"
           style="fill:#ff7f2a;fill-opacity:1;stroke-width:0.264583"
           id="tspan6643">calculate residuals</tspan></text>
      <text
         xml:space="preserve"
         style="font-weight:bold;font-size:3.80484px;line-height:1.25;font-family:Ligconsolata;-inkscape-font-specification:'Ligconsolata, Bold';letter-spacing:0px;word-spacing:0px;stroke-width:0.264583"
         x="271.74744"
         y="-277.03284"
         id="text3734"><tspan
           sodipodi:role="line"
           x="271.74744"
           y="-277.03284"
           style="stroke-width:0.264583"
           id="tspan3738">Equivalent sources</tspan><tspan
           sodipodi:role="line"
           x="271.74744"
           y="-272.27679"
           style="stroke-width:0.264583"
           id="tspan17979">beneath each data point</tspan></text>
    </g>
  </g>
</svg>
